<?xml version="1.0" encoding="UTF-8"?>
<svg id="Layer_1" data-name="Layer 1" xmlns="http://www.w3.org/2000/svg" viewBox="0 0 403.52 483.06">
  <defs>
    <style>
      .cls-1 {
        fill: none;
      }
    </style>
  </defs>
  <path class="cls-1" d="m43.58,236.98v87.39c0,11.9,93.33,105.93,157.58,106.5.2,0,.4.01.59.01v-193.91H43.58Z"/>
  <polygon class="cls-1" points="201.76 236.98 359.35 236.98 359.94 236.98 359.94 95.38 201.76 52.17 201.76 236.98"/>
  <path d="m201.76,0L0,55.12v292.08c0,15.22,119.78,135.86,201.76,135.86s201.76-120.65,201.76-135.86V55.12L201.76,0Zm158.18,236.98h-158.18s-.4,193.89-.59,193.89c-64.25-.57-157.58-94.61-157.58-106.5v-87.39h158.18V52.17l158.18,43.21v141.59Z"/>
</svg>