<?xml version="1.0" encoding="UTF-8"?>
<svg id="Layer_8" data-name="Layer 8" xmlns="http://www.w3.org/2000/svg" viewBox="0 0 792.38 595.28">
  <defs>
    <style>
      .cls-1 {
        fill: #000;
      }
    </style>
  </defs>
  <path class="cls-1" d="m78.83,352.86c-7.38,3.71-17.02,5.56-28.91,5.56-15.51,0-27.71-4.73-36.59-14.2-8.88-9.47-13.33-22.09-13.33-37.85,0-16.79,4.99-30.41,14.98-40.86,9.99-10.45,22.95-15.67,38.89-15.67,9.87,0,18.19,1.29,24.96,3.88v22.77c-6.77-4.2-14.48-6.3-23.13-6.3-9.5,0-17.16,3.1-22.99,9.3-5.83,6.2-8.74,14.6-8.74,25.19s2.75,18.24,8.25,24.27c5.5,6.03,12.9,9.04,22.21,9.04s17.02-2.24,24.4-6.74v21.6Z"/>
  <path class="cls-1" d="m169.07,251.6l-32.93,67.65v37.34h-22.77v-36.9l-32.08-68.09h26.02l16.29,39.17c.28.73,1.06,3.59,2.33,8.57h.28c.61-3.51,1.34-6.27,2.19-8.27l16.57-39.46h24.11Z"/>
  <path class="cls-1" d="m199.65,320.43v36.17h-22.77v-105h35.68c25.48,0,38.22,11.15,38.22,33.46,0,10.54-3.66,19.07-10.96,25.59-7.31,6.52-17.08,9.78-29.3,9.78h-10.86Zm0-50.67v32.73h8.95c12.13,0,18.19-5.52,18.19-16.55s-6.06-16.18-18.19-16.18h-8.95Z"/>
  <path class="cls-1" d="m346.79,356.6h-26.16l-15.72-27.02c-1.18-2.05-2.3-3.88-3.38-5.49-1.08-1.61-2.17-2.99-3.28-4.14-1.1-1.15-2.26-2.02-3.45-2.64-1.2-.61-2.5-.92-3.91-.92h-6.13v40.2h-22.77v-105h36.1c24.54,0,36.81,9.52,36.81,28.56,0,3.66-.54,7.04-1.62,10.14-1.08,3.1-2.61,5.89-4.58,8.38s-4.36,4.64-7.16,6.44c-2.8,1.81-5.91,3.22-9.34,4.25v.29c1.5.49,2.96,1.28,4.37,2.38s2.77,2.38,4.09,3.84c1.32,1.46,2.57,3.04,3.77,4.72,1.2,1.68,2.29,3.33,3.28,4.94l19.11,31.04Zm-62.05-87.28v29.21h9.87c4.89,0,8.81-1.46,11.77-4.39,3.01-2.98,4.51-6.66,4.51-11.06,0-9.18-5.29-13.77-15.86-13.77h-10.29Z"/>
  <path class="cls-1" d="m395.36,358.43c-14.48,0-26.28-4.89-35.4-14.68-9.12-9.79-13.68-22.54-13.68-38.26,0-16.6,4.63-30.02,13.89-40.27,9.26-10.25,21.53-15.38,36.81-15.38,14.43,0,26.1,4.91,35.01,14.72s13.36,22.75,13.36,38.81-4.62,29.8-13.86,39.9c-9.24,10.1-21.28,15.16-36.14,15.16Zm.99-88.23c-7.99,0-14.34,3.11-19.04,9.34-4.7,6.22-7.05,14.46-7.05,24.71s2.35,18.62,7.05,24.67c4.7,6.05,10.86,9.08,18.47,9.08s14.08-2.94,18.68-8.82c4.61-5.88,6.91-14.04,6.91-24.49s-2.23-19.35-6.7-25.41c-4.46-6.05-10.58-9.08-18.33-9.08Z"/>
  <path class="cls-1" d="m529.52,270.86h-28.84v85.74h-22.84v-85.74h-28.7v-19.26h80.38v19.26Z"/>
  <path class="cls-1" d="m600.16,356.6h-60.64v-105h58.31v19.26h-35.54v23.36h33.07v19.18h-33.07v24.02h37.86v19.18Z"/>
  <path class="cls-1" d="m685.25,352.86c-7.38,3.71-17.02,5.56-28.91,5.56-15.51,0-27.71-4.73-36.59-14.2-8.88-9.47-13.33-22.09-13.33-37.85,0-16.79,4.99-30.41,14.98-40.86,9.99-10.45,22.95-15.67,38.89-15.67,9.87,0,18.19,1.29,24.96,3.88v22.77c-6.77-4.2-14.48-6.3-23.13-6.3-9.5,0-17.16,3.1-22.99,9.3-5.83,6.2-8.74,14.6-8.74,25.19s2.75,18.24,8.25,24.27,12.9,9.04,22.21,9.04,17.02-2.24,24.4-6.74v21.6Z"/>
  <path class="cls-1" d="m783.31,356.6h-28.77l-29.47-45.62c-.56-.88-1.46-2.81-2.68-5.78h-.35v51.4h-22.77v-105h22.77v49.64h.35c.56-1.37,1.5-3.32,2.82-5.86l27.92-43.79h27.15l-35.25,50.08,38.29,54.91Z"/>
</svg>